<svg xmlns="http://www.w3.org/2000/svg" xmlns:xlink="http://www.w3.org/1999/xlink" zoomAndPan="magnify" viewBox="50 400 1410 500" preserveAspectRatio="xMidYMid meet" version="1.0"><defs><g/><clipPath id="20a3e11226"><path d="M 0.398438 0.679688 L 1363 0.679688 L 1363 402 L 0.398438 402 Z M 0.398438 0.679688 " clip-rule="nonzero"/></clipPath><clipPath id="c71d733e48"><path d="M 14 0.679688 L 203 0.679688 L 203 284 L 14 284 Z M 14 0.679688 " clip-rule="nonzero"/></clipPath><clipPath id="de8e6eeb8a"><rect x="0" width="1363" y="0" height="402"/></clipPath><clipPath id="40d31d44e8"><path d="M 637 354 L 1382.320312 354 L 1382.320312 472.039062 L 637 472.039062 Z M 637 354 " clip-rule="nonzero"/></clipPath><clipPath id="87083ad213"><rect x="0" width="746" y="0" height="119"/></clipPath><clipPath id="c9b2d1030e"><rect x="0" width="1383" y="0" height="473"/></clipPath></defs><g transform="matrix(1, 0, 0, 1, 62, 415)"><g clip-path="url(#c9b2d1030e)"><g clip-path="url(#20a3e11226)"><g transform="matrix(1, 0, 0, 1, 0.000000000000007105, 0.000000000000113687)"><g clip-path="url(#de8e6eeb8a)"><g clip-path="url(#c71d733e48)"><g fill="#000000" fill-opacity="1"><g transform="translate(2.84402, 283.568033)"><g><path d="M 11.3125 0 C 15.082031 -3.769531 17.578125 -9.421875 18.796875 -16.953125 C 20.023438 -24.492188 20.59375 -32.972656 20.5 -42.390625 C 20.40625 -51.816406 20.359375 -61.242188 20.359375 -70.671875 L 20.359375 -212.015625 C 20.359375 -221.441406 20.40625 -230.863281 20.5 -240.28125 C 20.59375 -249.707031 20.023438 -258.1875 18.796875 -265.71875 C 17.578125 -273.257812 15.082031 -278.914062 11.3125 -282.6875 L 49.1875 -282.6875 C 45.414062 -278.914062 42.914062 -273.257812 41.6875 -265.71875 C 40.46875 -258.1875 39.90625 -249.707031 40 -240.28125 C 40.09375 -230.863281 40.140625 -221.441406 40.140625 -212.015625 L 40.140625 -7.0625 L 106.296875 -7.0625 C 133.617188 -7.0625 154.628906 -8.660156 169.328125 -11.859375 C 184.023438 -15.066406 194.296875 -18.460938 200.140625 -22.046875 L 200.140625 0 Z M 11.3125 0 "/></g></g></g></g><g fill="#000000" fill-opacity="1"><g transform="translate(202.969417, 283.568033)"><g><path d="M 48.90625 0 L 11.03125 0 C 14.789062 -3.769531 17.285156 -9.421875 18.515625 -16.953125 C 19.742188 -24.492188 20.3125 -32.972656 20.21875 -42.390625 C 20.125 -51.816406 20.078125 -61.242188 20.078125 -70.671875 L 20.078125 -117.3125 C 20.078125 -126.738281 20.125 -136.160156 20.21875 -145.578125 C 20.3125 -155.003906 19.742188 -163.484375 18.515625 -171.015625 C 17.285156 -178.554688 14.789062 -184.210938 11.03125 -187.984375 L 39.859375 -187.984375 L 39.859375 -70.671875 C 39.859375 -61.242188 39.8125 -51.816406 39.71875 -42.390625 C 39.625 -32.972656 40.1875 -24.492188 41.40625 -16.953125 C 42.632812 -9.421875 45.132812 -3.769531 48.90625 0 Z M 26.578125 -214.84375 C 21.859375 -214.84375 17.894531 -216.441406 14.6875 -219.640625 C 11.488281 -222.847656 9.890625 -226.804688 9.890625 -231.515625 C 9.890625 -236.046875 11.488281 -239.910156 14.6875 -243.109375 C 17.894531 -246.316406 21.859375 -247.921875 26.578125 -247.921875 C 31.097656 -247.921875 34.957031 -246.316406 38.15625 -243.109375 C 41.363281 -239.910156 42.96875 -236.046875 42.96875 -231.515625 C 42.96875 -226.804688 41.363281 -222.847656 38.15625 -219.640625 C 34.957031 -216.441406 31.097656 -214.84375 26.578125 -214.84375 Z M 26.578125 -214.84375 "/></g></g></g><g fill="#000000" fill-opacity="1"><g transform="translate(256.108982, 283.568033)"><g><path d="M 14.140625 -102.609375 C 14.140625 -112.410156 15.597656 -122.019531 18.515625 -131.4375 C 21.429688 -140.863281 25.289062 -149.535156 30.09375 -157.453125 C 34.90625 -165.367188 40.28125 -172.007812 46.21875 -177.375 C 52.15625 -182.75 58.046875 -186.285156 63.890625 -187.984375 L 178.09375 -187.984375 L 178.09375 -166.5 C 170.738281 -170.269531 162.160156 -173.238281 152.359375 -175.40625 C 142.566406 -177.570312 131.546875 -178.65625 119.296875 -178.65625 L 61.34375 -178.65625 C 55.875 -175.070312 51.113281 -169.414062 47.0625 -161.6875 C 43.007812 -153.96875 39.851562 -145.113281 37.59375 -135.125 C 35.332031 -125.132812 34.203125 -115.050781 34.203125 -104.875 C 34.203125 -89.988281 36.742188 -76.609375 41.828125 -64.734375 C 46.921875 -52.859375 53.753906 -42.820312 62.328125 -34.625 C 70.898438 -26.425781 80.273438 -20.160156 90.453125 -15.828125 C 100.628906 -11.492188 110.804688 -9.328125 120.984375 -9.328125 C 132.671875 -9.328125 142.332031 -10.832031 149.96875 -13.84375 C 157.601562 -16.863281 163.726562 -20.679688 168.34375 -25.296875 C 172.957031 -29.910156 176.488281 -34.484375 178.9375 -39.015625 L 184.59375 -35.90625 C 177.050781 -21.957031 166.117188 -12.015625 151.796875 -6.078125 C 137.472656 -0.140625 121.644531 2.828125 104.3125 2.828125 C 95.070312 2.828125 85.222656 0.613281 74.765625 -3.8125 C 64.304688 -8.238281 54.503906 -14.832031 45.359375 -23.59375 C 36.222656 -32.363281 28.734375 -43.34375 22.890625 -56.53125 C 17.054688 -69.726562 14.140625 -85.085938 14.140625 -102.609375 Z M 14.140625 -102.609375 "/></g></g></g><g fill="#000000" fill-opacity="1"><g transform="translate(444.927818, 283.568033)"><g><path d="M 48.90625 0 L 11.03125 0 C 14.789062 -3.769531 17.285156 -9.421875 18.515625 -16.953125 C 19.742188 -24.492188 20.3125 -32.972656 20.21875 -42.390625 C 20.125 -51.816406 20.078125 -61.242188 20.078125 -70.671875 L 20.078125 -117.3125 C 20.078125 -126.738281 20.125 -136.160156 20.21875 -145.578125 C 20.3125 -155.003906 19.742188 -163.484375 18.515625 -171.015625 C 17.285156 -178.554688 14.789062 -184.210938 11.03125 -187.984375 L 39.859375 -187.984375 L 39.859375 -70.671875 C 39.859375 -61.242188 39.8125 -51.816406 39.71875 -42.390625 C 39.625 -32.972656 40.1875 -24.492188 41.40625 -16.953125 C 42.632812 -9.421875 45.132812 -3.769531 48.90625 0 Z M 26.578125 -214.84375 C 21.859375 -214.84375 17.894531 -216.441406 14.6875 -219.640625 C 11.488281 -222.847656 9.890625 -226.804688 9.890625 -231.515625 C 9.890625 -236.046875 11.488281 -239.910156 14.6875 -243.109375 C 17.894531 -246.316406 21.859375 -247.921875 26.578125 -247.921875 C 31.097656 -247.921875 34.957031 -246.316406 38.15625 -243.109375 C 41.363281 -239.910156 42.96875 -236.046875 42.96875 -231.515625 C 42.96875 -226.804688 41.363281 -222.847656 38.15625 -219.640625 C 34.957031 -216.441406 31.097656 -214.84375 26.578125 -214.84375 Z M 26.578125 -214.84375 "/></g></g></g><g fill="#000000" fill-opacity="1"><g transform="translate(498.067383, 283.568033)"><g><path d="M 0 -182.046875 C 6.03125 -182.804688 11.445312 -185.585938 16.25 -190.390625 C 21.0625 -195.191406 25.207031 -200.984375 28.6875 -207.765625 C 32.175781 -214.554688 34.816406 -221.296875 36.609375 -227.984375 C 38.398438 -234.671875 39.296875 -240.28125 39.296875 -244.8125 L 40.421875 -244.8125 L 40.421875 -185.15625 L 57.953125 -185.15625 L 57.953125 -180.921875 L 40.421875 -180.921875 L 40.421875 -26.859375 C 40.421875 -23.460938 40.890625 -19.832031 41.828125 -15.96875 C 42.773438 -12.101562 44.378906 -8.804688 46.640625 -6.078125 C 48.898438 -3.347656 52.007812 -1.984375 55.96875 -1.984375 C 58.414062 -1.984375 60.582031 -2.265625 62.46875 -2.828125 C 64.351562 -3.390625 66.238281 -4.050781 68.125 -4.8125 L 68.96875 -2.265625 C 63.695312 1.128906 57.671875 2.828125 50.890625 2.828125 C 45.984375 2.828125 41.175781 1.367188 36.46875 -1.546875 C 31.757812 -4.472656 27.894531 -8.90625 24.875 -14.84375 C 21.863281 -20.78125 20.359375 -28.269531 20.359375 -37.3125 L 20.359375 -180.921875 L 0 -180.921875 Z M 0 -182.046875 "/></g></g></g><g fill="#000000" fill-opacity="1"><g transform="translate(555.729643, 283.568033)"><g><path d="M 14.140625 -26.859375 C 14.140625 -37.410156 16.492188 -47.207031 21.203125 -56.25 C 25.910156 -65.300781 32.222656 -73.5 40.140625 -80.84375 C 48.054688 -88.195312 56.910156 -94.695312 66.703125 -100.34375 C 76.503906 -106 86.585938 -110.898438 96.953125 -115.046875 C 107.328125 -119.191406 117.269531 -122.488281 126.78125 -124.9375 C 136.300781 -127.394531 144.640625 -129 151.796875 -129.75 C 151.046875 -139.175781 149.019531 -147.988281 145.71875 -156.1875 C 142.425781 -164.382812 137.148438 -171.023438 129.890625 -176.109375 C 122.640625 -181.203125 112.601562 -183.75 99.78125 -183.75 C 88.476562 -183.75 77.785156 -181.628906 67.703125 -177.390625 C 57.617188 -173.148438 48.664062 -168.109375 40.84375 -162.265625 C 33.019531 -156.421875 26.660156 -151.050781 21.765625 -146.15625 L 21.765625 -170.453125 C 35.148438 -177.054688 47.492188 -182.144531 58.796875 -185.71875 C 70.109375 -189.300781 82.359375 -191.09375 95.546875 -191.09375 C 113.078125 -191.09375 127.492188 -187.9375 138.796875 -181.625 C 150.109375 -175.3125 158.492188 -166.734375 163.953125 -155.890625 C 169.421875 -145.054688 172.15625 -132.671875 172.15625 -118.734375 L 172.15625 -70.953125 C 172.15625 -61.523438 172.109375 -52.097656 172.015625 -42.671875 C 171.921875 -33.253906 172.484375 -24.773438 173.703125 -17.234375 C 174.929688 -9.703125 177.429688 -4.050781 181.203125 -0.28125 L 67.84375 -0.28125 C 59.925781 -0.28125 52.71875 -0.234375 46.21875 -0.140625 C 39.71875 -0.046875 34.0625 -0.609375 29.25 -1.828125 C 24.445312 -3.054688 20.726562 -5.554688 18.09375 -9.328125 C 15.457031 -13.097656 14.140625 -18.941406 14.140625 -26.859375 Z M 152.375 -122.40625 C 143.882812 -121.457031 134.457031 -119.425781 124.09375 -116.3125 C 113.726562 -113.207031 103.363281 -109.109375 93 -104.015625 C 82.632812 -98.929688 73.070312 -93 64.3125 -86.21875 C 55.550781 -79.4375 48.53125 -71.992188 43.25 -63.890625 C 37.96875 -55.785156 35.328125 -47.019531 35.328125 -37.59375 C 35.328125 -19.6875 43.625 -10.734375 60.21875 -10.734375 L 152.375 -10.734375 L 152.375 -113.359375 C 152.375 -114.867188 152.375 -116.375 152.375 -117.875 C 152.375 -119.382812 152.375 -120.894531 152.375 -122.40625 Z M 152.375 -122.40625 "/></g></g></g><g fill="#000000" fill-opacity="1"><g transform="translate(741.156476, 283.568033)"><g><path d="M 18.9375 -117.3125 C 18.9375 -126.738281 18.984375 -136.160156 19.078125 -145.578125 C 19.171875 -155.003906 18.601562 -163.484375 17.375 -171.015625 C 16.15625 -178.554688 13.660156 -184.210938 9.890625 -187.984375 L 38.734375 -187.984375 L 38.734375 -34.484375 C 41.742188 -39.953125 45.367188 -47.488281 49.609375 -57.09375 C 53.847656 -66.707031 58.601562 -77.40625 63.875 -89.1875 C 69.15625 -100.96875 74.953125 -112.789062 81.265625 -124.65625 C 87.585938 -136.53125 94.234375 -147.460938 101.203125 -157.453125 C 108.171875 -167.441406 115.519531 -175.5 123.25 -181.625 C 130.976562 -187.75 138.894531 -190.8125 147 -190.8125 C 154.15625 -190.8125 159.429688 -188.738281 162.828125 -184.59375 C 166.222656 -180.445312 168.484375 -174.695312 169.609375 -167.34375 C 170.742188 -160 171.3125 -151.332031 171.3125 -141.34375 L 171.3125 -70.671875 C 171.3125 -61.242188 171.265625 -51.816406 171.171875 -42.390625 C 171.078125 -32.972656 171.640625 -24.492188 172.859375 -16.953125 C 174.085938 -9.421875 176.585938 -3.769531 180.359375 0 L 142.46875 0 C 146.238281 -3.769531 148.734375 -9.421875 149.953125 -16.953125 C 151.179688 -24.492188 151.75 -32.972656 151.65625 -42.390625 C 151.5625 -51.816406 151.515625 -61.242188 151.515625 -70.671875 L 151.515625 -156.609375 C 151.515625 -156.609375 151.515625 -157.644531 151.515625 -159.71875 C 151.515625 -161.789062 151.140625 -164.144531 150.390625 -166.78125 C 149.640625 -169.425781 148.226562 -171.785156 146.15625 -173.859375 C 144.082031 -175.929688 141.066406 -176.96875 137.109375 -176.96875 C 130.890625 -176.96875 124.570312 -173.710938 118.15625 -167.203125 C 111.75 -160.703125 105.296875 -152.128906 98.796875 -141.484375 C 92.296875 -130.835938 85.984375 -119.101562 79.859375 -106.28125 C 73.734375 -93.46875 67.84375 -80.65625 62.1875 -67.84375 C 56.53125 -55.03125 51.300781 -43.296875 46.5 -32.640625 C 41.695312 -21.992188 37.503906 -13.421875 33.921875 -6.921875 C 30.335938 -0.421875 27.414062 2.828125 25.15625 2.828125 C 22.707031 2.828125 21.054688 1.742188 20.203125 -0.421875 C 19.359375 -2.585938 18.9375 -4.800781 18.9375 -7.0625 Z M 18.9375 -117.3125 "/></g></g></g><g fill="#000000" fill-opacity="1"><g transform="translate(925.735343, 283.568033)"><g><path d="M 14.140625 -96.390625 C 14.140625 -108.265625 16.019531 -119.804688 19.78125 -131.015625 C 23.550781 -142.234375 29.253906 -152.363281 36.890625 -161.40625 C 44.523438 -170.457031 54.273438 -177.617188 66.140625 -182.890625 C 78.015625 -188.171875 91.960938 -190.8125 107.984375 -190.8125 C 123.253906 -190.8125 136.960938 -187.5625 149.109375 -181.0625 C 161.265625 -174.5625 170.875 -165.796875 177.9375 -154.765625 C 185.007812 -143.742188 188.546875 -131.257812 188.546875 -117.3125 C 188.546875 -114.300781 188.359375 -111.050781 187.984375 -107.5625 C 187.609375 -104.070312 186.945312 -101.101562 186 -98.65625 C 185.0625 -96.207031 183.835938 -94.984375 182.328125 -94.984375 L 35.625 -94.984375 C 35.8125 -78.585938 38.023438 -64.78125 42.265625 -53.5625 C 46.503906 -42.351562 52.203125 -33.351562 59.359375 -26.5625 C 66.523438 -19.78125 74.488281 -14.878906 83.25 -11.859375 C 92.007812 -8.847656 100.914062 -7.34375 109.96875 -7.34375 C 119.957031 -7.34375 129.566406 -8.847656 138.796875 -11.859375 C 148.035156 -14.878906 156 -18.929688 162.6875 -24.015625 C 169.375 -29.109375 173.847656 -34.671875 176.109375 -40.703125 L 183.75 -37.875 C 176.019531 -25.8125 165.75 -16.007812 152.9375 -8.46875 C 140.125 -0.9375 124.953125 2.828125 107.421875 2.828125 C 92.535156 2.828125 79.296875 0.046875 67.703125 -5.515625 C 56.109375 -11.078125 46.304688 -18.613281 38.296875 -28.125 C 30.296875 -37.644531 24.269531 -48.289062 20.21875 -60.0625 C 16.164062 -71.84375 14.140625 -83.953125 14.140625 -96.390625 Z M 35.90625 -102.046875 L 168.203125 -102.046875 C 168.203125 -102.046875 168.4375 -104.023438 168.90625 -107.984375 C 169.375 -111.941406 169.5625 -117.03125 169.46875 -123.25 C 169.375 -129.46875 168.429688 -136.015625 166.640625 -142.890625 C 164.847656 -149.773438 161.785156 -156.328125 157.453125 -162.546875 C 153.117188 -168.765625 146.992188 -173.851562 139.078125 -177.8125 C 131.160156 -181.769531 120.890625 -183.75 108.265625 -183.75 C 97.148438 -183.75 87.207031 -181.484375 78.4375 -176.953125 C 69.675781 -172.429688 62.234375 -166.304688 56.109375 -158.578125 C 49.984375 -150.859375 45.222656 -142.144531 41.828125 -132.4375 C 38.441406 -122.726562 36.46875 -112.597656 35.90625 -102.046875 Z M 35.90625 -102.046875 "/></g></g></g><g fill="#000000" fill-opacity="1"><g transform="translate(1122.751462, 283.568033)"><g><path d="M 81.40625 2.828125 C 72.738281 2.828125 64.164062 1.554688 55.6875 -0.984375 C 47.207031 -3.535156 39.476562 -7.304688 32.5 -12.296875 C 25.53125 -17.285156 20.019531 -23.265625 15.96875 -30.234375 C 11.914062 -37.210938 9.890625 -45.035156 9.890625 -53.703125 C 9.890625 -62.191406 11.726562 -69.78125 15.40625 -76.46875 C 19.082031 -83.15625 24.03125 -88.144531 30.25 -91.4375 C 36.46875 -94.738281 43.347656 -95.640625 50.890625 -94.140625 C 42.972656 -88.859375 37.691406 -83.015625 35.046875 -76.609375 C 32.410156 -70.203125 31.09375 -62.851562 31.09375 -54.5625 C 31.09375 -44.382812 33.351562 -35.523438 37.875 -27.984375 C 42.40625 -20.441406 48.484375 -14.644531 56.109375 -10.59375 C 63.742188 -6.539062 72.082031 -4.515625 81.125 -4.515625 C 91.113281 -4.515625 100.488281 -6.820312 109.25 -11.4375 C 118.019531 -16.0625 125.085938 -22.613281 130.453125 -31.09375 C 135.828125 -39.570312 138.515625 -49.5625 138.515625 -61.0625 C 138.515625 -71.800781 136.347656 -80.84375 132.015625 -88.1875 C 127.679688 -95.539062 121.929688 -101.664062 114.765625 -106.5625 C 107.609375 -111.46875 99.738281 -115.757812 91.15625 -119.4375 C 82.582031 -123.113281 74.007812 -126.550781 65.4375 -129.75 C 56.863281 -132.957031 48.992188 -136.441406 41.828125 -140.203125 C 34.671875 -143.972656 28.925781 -148.546875 24.59375 -153.921875 C 20.257812 -159.296875 18.09375 -166.035156 18.09375 -174.140625 C 18.09375 -179.984375 19.082031 -183.75 21.0625 -185.4375 C 23.039062 -187.132812 24.40625 -187.984375 25.15625 -187.984375 L 152.9375 -187.984375 L 152.9375 -168.765625 C 145.582031 -172.535156 137.523438 -175.503906 128.765625 -177.671875 C 120.003906 -179.835938 108.460938 -180.921875 94.140625 -180.921875 L 32.796875 -180.921875 C 29.773438 -180.921875 27.984375 -179.976562 27.421875 -178.09375 C 26.859375 -176.207031 26.578125 -174.890625 26.578125 -174.140625 C 26.578125 -169.421875 30.484375 -164.941406 38.296875 -160.703125 C 46.117188 -156.460938 56.0625 -152.363281 68.125 -148.40625 C 79.4375 -144.832031 90.507812 -140.875 101.34375 -136.53125 C 112.175781 -132.195312 122.019531 -127.015625 130.875 -120.984375 C 139.738281 -114.953125 146.804688 -107.554688 152.078125 -98.796875 C 157.359375 -90.035156 160 -79.34375 160 -66.71875 C 160 -52.019531 156.320312 -39.484375 148.96875 -29.109375 C 141.625 -18.742188 132.015625 -10.828125 120.140625 -5.359375 C 108.265625 0.0976562 95.351562 2.828125 81.40625 2.828125 Z M 81.40625 2.828125 "/></g></g></g><g fill="#000000" fill-opacity="1"><g transform="translate(1288.391731, 283.568033)"><g><path d="M 0 -182.046875 C 6.03125 -182.804688 11.445312 -185.585938 16.25 -190.390625 C 21.0625 -195.191406 25.207031 -200.984375 28.6875 -207.765625 C 32.175781 -214.554688 34.816406 -221.296875 36.609375 -227.984375 C 38.398438 -234.671875 39.296875 -240.28125 39.296875 -244.8125 L 40.421875 -244.8125 L 40.421875 -185.15625 L 57.953125 -185.15625 L 57.953125 -180.921875 L 40.421875 -180.921875 L 40.421875 -26.859375 C 40.421875 -23.460938 40.890625 -19.832031 41.828125 -15.96875 C 42.773438 -12.101562 44.378906 -8.804688 46.640625 -6.078125 C 48.898438 -3.347656 52.007812 -1.984375 55.96875 -1.984375 C 58.414062 -1.984375 60.582031 -2.265625 62.46875 -2.828125 C 64.351562 -3.390625 66.238281 -4.050781 68.125 -4.8125 L 68.96875 -2.265625 C 63.695312 1.128906 57.671875 2.828125 50.890625 2.828125 C 45.984375 2.828125 41.175781 1.367188 36.46875 -1.546875 C 31.757812 -4.472656 27.894531 -8.90625 24.875 -14.84375 C 21.863281 -20.78125 20.359375 -28.269531 20.359375 -37.3125 L 20.359375 -180.921875 L 0 -180.921875 Z M 0 -182.046875 "/></g></g></g></g></g></g><g clip-path="url(#40d31d44e8)"><g transform="matrix(1, 0, 0, 1, 637, 354)"><g clip-path="url(#87083ad213)"><g fill="#000000" fill-opacity="1"><g transform="translate(3.966689, 80.250049)"><g><path d="M 13.359375 -50.25 C 13.359375 -55.625 13.160156 -60.003906 12.765625 -63.390625 C 12.378906 -66.785156 11.410156 -69.296875 9.859375 -70.921875 C 8.304688 -72.546875 5.726562 -73.359375 2.125 -73.359375 L 2.125 -74.21875 L 31.703125 -74.21875 C 35.441406 -74.21875 38.9375 -73.664062 42.1875 -72.5625 C 45.445312 -71.46875 48.082031 -69.703125 50.09375 -67.265625 C 52.101562 -64.828125 53.109375 -61.59375 53.109375 -57.5625 C 53.109375 -54.3125 52.296875 -51.414062 50.671875 -48.875 C 49.046875 -46.332031 46.90625 -44.316406 44.25 -42.828125 C 41.601562 -41.347656 38.726562 -40.609375 35.625 -40.609375 C 41.132812 -40.609375 45.601562 -39.582031 49.03125 -37.53125 C 52.457031 -35.476562 54.984375 -32.859375 56.609375 -29.671875 C 58.234375 -26.492188 59.046875 -23.210938 59.046875 -19.828125 C 59.046875 -15.867188 58.269531 -12.597656 56.71875 -10.015625 C 55.164062 -7.441406 53.1875 -5.425781 50.78125 -3.96875 C 48.375 -2.519531 45.953125 -1.492188 43.515625 -0.890625 C 41.078125 -0.296875 38.941406 0 37.109375 0 L 2.125 0 L 2.125 -0.84375 C 5.726562 -0.84375 8.304688 -1.65625 9.859375 -3.28125 C 11.410156 -4.90625 12.378906 -7.429688 12.765625 -10.859375 C 13.160156 -14.296875 13.359375 -18.660156 13.359375 -23.953125 Z M 19.71875 -39.546875 L 19.71875 -2.125 L 34.25 -2.015625 C 40.175781 -2.015625 44.710938 -3.640625 47.859375 -6.890625 C 51.003906 -10.140625 52.578125 -14.453125 52.578125 -19.828125 C 52.578125 -23.710938 51.816406 -26.925781 50.296875 -29.46875 C 48.785156 -32.007812 46.773438 -34.019531 44.265625 -35.5 C 41.753906 -36.988281 38.976562 -38.035156 35.9375 -38.640625 C 32.894531 -39.242188 29.859375 -39.546875 26.828125 -39.546875 Z M 19.71875 -72.09375 L 19.71875 -41.5625 L 29.046875 -41.5625 C 34.773438 -41.5625 39.140625 -43.078125 42.140625 -46.109375 C 45.140625 -49.148438 46.640625 -52.96875 46.640625 -57.5625 C 46.640625 -61.945312 45.15625 -65.460938 42.1875 -68.109375 C 39.21875 -70.765625 34.910156 -72.09375 29.265625 -72.09375 Z M 19.71875 -72.09375 "/></g></g></g><g fill="#000000" fill-opacity="1"><g transform="translate(67.252209, 80.250049)"><g><path d="M 0 -73.359375 L 0 -74.21875 L 28.734375 -74.21875 L 28.734375 -73.359375 C 26.328125 -73.359375 24.347656 -72.914062 22.796875 -72.03125 C 21.242188 -71.15625 20.46875 -69.195312 20.46875 -66.15625 C 20.46875 -65.019531 20.875 -63.269531 21.6875 -60.90625 C 22.5 -58.539062 23.484375 -55.90625 24.640625 -53 C 25.804688 -50.101562 26.988281 -47.3125 28.1875 -44.625 C 29.394531 -41.945312 30.390625 -39.722656 31.171875 -37.953125 C 32.085938 -39.929688 33.234375 -42.40625 34.609375 -45.375 C 35.992188 -48.34375 37.351562 -51.378906 38.6875 -54.484375 C 40.03125 -57.597656 41.160156 -60.390625 42.078125 -62.859375 C 43.003906 -65.335938 43.46875 -67.035156 43.46875 -67.953125 C 43.46875 -70.359375 42.617188 -71.859375 40.921875 -72.453125 C 39.222656 -73.054688 37.140625 -73.359375 34.671875 -73.359375 L 34.671875 -74.21875 L 59.578125 -74.21875 L 59.578125 -73.359375 C 56.960938 -73.359375 54.664062 -72.671875 52.6875 -71.296875 C 50.707031 -69.921875 48.765625 -67.726562 46.859375 -64.71875 C 44.953125 -61.71875 42.847656 -57.796875 40.546875 -52.953125 C 38.253906 -48.109375 35.484375 -42.222656 32.234375 -35.296875 L 32.234375 -23.953125 C 32.234375 -18.660156 32.425781 -14.296875 32.8125 -10.859375 C 33.195312 -7.429688 34.164062 -4.90625 35.71875 -3.28125 C 37.28125 -1.65625 39.863281 -0.84375 43.46875 -0.84375 L 43.46875 0 L 14.734375 0 L 14.734375 -0.84375 C 18.335938 -0.84375 20.914062 -1.65625 22.46875 -3.28125 C 24.03125 -4.90625 25.003906 -7.429688 25.390625 -10.859375 C 25.773438 -14.296875 25.96875 -18.660156 25.96875 -23.953125 L 25.96875 -34.875 C 22.507812 -42.300781 19.679688 -48.488281 17.484375 -53.4375 C 15.296875 -58.382812 13.367188 -62.304688 11.703125 -65.203125 C 10.046875 -68.097656 8.332031 -70.179688 6.5625 -71.453125 C 4.800781 -72.722656 2.613281 -73.359375 0 -73.359375 Z M 0 -73.359375 "/></g></g></g><g fill="#000000" fill-opacity="1"><g transform="translate(126.827504, 80.250049)"><g/></g></g><g fill="#000000" fill-opacity="1"><g transform="translate(153.329007, 80.250049)"><g><path d="M 30.84375 0 L 2.125 0 L 2.125 -0.84375 C 5.019531 -0.84375 7.457031 -2.394531 9.4375 -5.5 C 11.414062 -8.613281 13.113281 -14.203125 14.53125 -22.265625 C 15.375 -26.992188 16.238281 -32.046875 17.125 -37.421875 C 18.007812 -42.796875 18.835938 -48.046875 19.609375 -53.171875 C 20.390625 -58.296875 21.078125 -62.851562 21.671875 -66.84375 C 22.273438 -70.832031 22.6875 -73.816406 22.90625 -75.796875 L 23.75 -75.796875 L 46.109375 -13.46875 L 66.265625 -75.796875 L 67.109375 -75.796875 C 67.316406 -73.816406 67.722656 -70.832031 68.328125 -66.84375 C 68.929688 -62.851562 69.640625 -58.296875 70.453125 -53.171875 C 71.265625 -48.046875 72.09375 -42.796875 72.9375 -37.421875 C 73.789062 -32.046875 74.640625 -26.992188 75.484375 -22.265625 C 76.472656 -16.890625 77.550781 -12.628906 78.71875 -9.484375 C 79.882812 -6.335938 81.226562 -4.109375 82.75 -2.796875 C 84.269531 -1.492188 85.984375 -0.84375 87.890625 -0.84375 L 87.890625 0 L 60.53125 0 L 60.53125 -0.84375 C 63.644531 -0.84375 66.066406 -1.53125 67.796875 -2.90625 C 69.523438 -4.289062 70.390625 -6.820312 70.390625 -10.5 C 70.390625 -11.625 70.210938 -13.546875 69.859375 -16.265625 C 69.503906 -18.992188 69.046875 -22.175781 68.484375 -25.8125 C 67.921875 -29.457031 67.320312 -33.1875 66.6875 -37 C 66.050781 -40.8125 65.445312 -44.34375 64.875 -47.59375 C 64.3125 -50.851562 63.851562 -53.488281 63.5 -55.5 C 63.144531 -57.507812 62.96875 -58.515625 62.96875 -58.515625 L 44.3125 -1.484375 L 43.46875 -1.484375 L 22.796875 -58.3125 C 22.515625 -55.90625 22.125 -52.898438 21.625 -49.296875 C 21.132812 -45.691406 20.640625 -41.875 20.140625 -37.84375 C 19.648438 -33.820312 19.171875 -29.921875 18.703125 -26.140625 C 18.242188 -22.359375 17.875 -19.050781 17.59375 -16.21875 C 17.3125 -13.394531 17.171875 -11.453125 17.171875 -10.390625 C 17.171875 -6.785156 18.109375 -4.289062 19.984375 -2.90625 C 21.859375 -1.53125 25.476562 -0.84375 30.84375 -0.84375 Z M 30.84375 0 "/></g></g></g><g fill="#000000" fill-opacity="1"><g transform="translate(243.32799, 80.250049)"><g><path d="M 2.125 -74.21875 L 53.96875 -74.21875 L 53.96875 -57.453125 L 53.109375 -57.453125 C 53.109375 -59.148438 52.894531 -60.863281 52.46875 -62.59375 C 52.050781 -64.332031 51.171875 -65.90625 49.828125 -67.3125 C 48.484375 -68.726562 46.414062 -69.878906 43.625 -70.765625 C 40.832031 -71.648438 37.101562 -72.09375 32.4375 -72.09375 L 19.71875 -72.09375 L 19.71875 -40.5 L 46.328125 -40.5 L 47.921875 -34.5625 C 46.648438 -35.550781 44.847656 -36.328125 42.515625 -36.890625 C 40.179688 -37.453125 37.757812 -37.835938 35.25 -38.046875 C 32.738281 -38.265625 30.492188 -38.375 28.515625 -38.375 L 19.71875 -38.375 L 19.71875 -2.125 L 32.125 -2.125 C 37.070312 -2.125 41.117188 -2.671875 44.265625 -3.765625 C 47.410156 -4.859375 49.914062 -6.304688 51.78125 -8.109375 C 53.65625 -9.910156 55.191406 -11.890625 56.390625 -14.046875 C 57.597656 -16.203125 58.769531 -18.34375 59.90625 -20.46875 L 60.75 -20.46875 L 54.8125 0 L 2.125 0 L 2.125 -0.84375 C 5.726562 -0.84375 8.304688 -1.65625 9.859375 -3.28125 C 11.410156 -4.90625 12.378906 -7.429688 12.765625 -10.859375 C 13.160156 -14.296875 13.359375 -18.660156 13.359375 -23.953125 L 13.359375 -50.25 C 13.359375 -55.625 13.160156 -60.003906 12.765625 -63.390625 C 12.378906 -66.785156 11.410156 -69.296875 9.859375 -70.921875 C 8.304688 -72.546875 5.726562 -73.359375 2.125 -73.359375 Z M 2.125 -74.21875 "/></g></g></g><g fill="#000000" fill-opacity="1"><g transform="translate(306.189462, 80.250049)"><g><path d="M 2.125 -57.453125 L 2.125 -74.21875 L 54.28125 -74.21875 L 54.28125 -57.453125 L 53.4375 -57.453125 C 53.4375 -59.148438 53.222656 -60.863281 52.796875 -62.59375 C 52.367188 -64.332031 51.484375 -65.90625 50.140625 -67.3125 C 48.796875 -68.726562 46.726562 -69.878906 43.9375 -70.765625 C 41.144531 -71.648438 37.421875 -72.09375 32.765625 -72.09375 L 31.28125 -72.09375 L 31.28125 -23.953125 C 31.28125 -18.660156 31.472656 -14.296875 31.859375 -10.859375 C 32.242188 -7.429688 33.210938 -4.90625 34.765625 -3.28125 C 36.328125 -1.65625 38.910156 -0.84375 42.515625 -0.84375 L 42.515625 0 L 13.78125 0 L 13.78125 -0.84375 C 17.382812 -0.84375 19.960938 -1.65625 21.515625 -3.28125 C 23.078125 -4.90625 24.050781 -7.429688 24.4375 -10.859375 C 24.820312 -14.296875 25.015625 -18.660156 25.015625 -23.953125 L 25.015625 -72.09375 L 23.640625 -72.09375 C 18.972656 -72.09375 15.242188 -71.648438 12.453125 -70.765625 C 9.660156 -69.878906 7.59375 -68.726562 6.25 -67.3125 C 4.90625 -65.90625 4.019531 -64.332031 3.59375 -62.59375 C 3.175781 -60.863281 2.96875 -59.148438 2.96875 -57.453125 Z M 2.125 -57.453125 "/></g></g></g><g fill="#000000" fill-opacity="1"><g transform="translate(362.584593, 80.250049)"><g><path d="M 0 -0.84375 C 3.113281 -0.84375 5.550781 -1.53125 7.3125 -2.90625 C 9.082031 -4.289062 10.601562 -6.5 11.875 -9.53125 C 13.144531 -12.570312 14.554688 -16.5 16.109375 -21.3125 C 17.171875 -24.5625 18.335938 -28.179688 19.609375 -32.171875 C 20.878906 -36.171875 22.203125 -40.269531 23.578125 -44.46875 C 24.960938 -48.675781 26.253906 -52.65625 27.453125 -56.40625 C 28.304688 -59.019531 29.066406 -61.382812 29.734375 -63.5 C 30.410156 -65.625 30.75 -67.601562 30.75 -69.4375 C 30.75 -70.851562 30.09375 -71.804688 28.78125 -72.296875 C 27.476562 -72.796875 25.195312 -73.046875 21.9375 -73.046875 L 21.9375 -74.21875 L 37.109375 -74.21875 C 37.671875 -72.445312 38.425781 -70.023438 39.375 -66.953125 C 40.332031 -63.878906 41.429688 -60.394531 42.671875 -56.5 C 43.910156 -52.613281 45.203125 -48.585938 46.546875 -44.421875 C 47.890625 -40.253906 49.210938 -36.171875 50.515625 -32.171875 C 51.828125 -28.179688 53.007812 -24.5625 54.0625 -21.3125 C 55.6875 -16.5 57.117188 -12.570312 58.359375 -9.53125 C 59.597656 -6.5 61.097656 -4.289062 62.859375 -2.90625 C 64.628906 -1.53125 67.070312 -0.84375 70.1875 -0.84375 L 70.1875 0 L 40.5 0 L 40.5 -0.84375 C 43.601562 -0.84375 45.828125 -1.492188 47.171875 -2.796875 C 48.515625 -4.109375 49.222656 -5.929688 49.296875 -8.265625 C 49.367188 -10.597656 49.015625 -13.335938 48.234375 -16.484375 C 47.460938 -19.628906 46.507812 -23.039062 45.375 -26.71875 L 20.890625 -26.71875 C 20.035156 -23.75 19.289062 -20.757812 18.65625 -17.75 C 18.019531 -14.75 17.828125 -11.957031 18.078125 -9.375 C 18.328125 -6.800781 19.316406 -4.734375 21.046875 -3.171875 C 22.773438 -1.617188 25.582031 -0.84375 29.46875 -0.84375 L 29.46875 0 L 0 0 Z M 21.421875 -28.84375 L 44.625 -28.84375 C 43.289062 -33.082031 41.914062 -37.425781 40.5 -41.875 C 39.082031 -46.332031 37.769531 -50.453125 36.5625 -54.234375 C 35.363281 -58.015625 34.394531 -61.050781 33.65625 -63.34375 C 32.914062 -65.644531 32.546875 -66.796875 32.546875 -66.796875 C 32.546875 -66.796875 32.191406 -65.644531 31.484375 -63.34375 C 30.773438 -61.050781 29.851562 -58.015625 28.71875 -54.234375 C 27.59375 -50.453125 26.394531 -46.332031 25.125 -41.875 C 23.851562 -37.425781 22.617188 -33.082031 21.421875 -28.84375 Z M 21.421875 -28.84375 "/></g></g></g><g fill="#000000" fill-opacity="1"><g transform="translate(432.760503, 80.250049)"><g><path d="M 6.359375 -37 C 6.359375 -44.769531 7.523438 -51.550781 9.859375 -57.34375 C 12.191406 -63.144531 15.441406 -67.648438 19.609375 -70.859375 C 23.785156 -74.078125 28.628906 -75.6875 34.140625 -75.6875 C 38.941406 -75.6875 42.953125 -74.925781 46.171875 -73.40625 C 49.390625 -71.894531 51.703125 -70.429688 53.109375 -69.015625 L 53.109375 -52.90625 L 52.15625 -52.90625 C 51.382812 -56.863281 50.148438 -60.394531 48.453125 -63.5 C 46.753906 -66.613281 44.703125 -69.070312 42.296875 -70.875 C 39.898438 -72.675781 37.179688 -73.578125 34.140625 -73.578125 C 31.171875 -73.578125 28.410156 -72.585938 25.859375 -70.609375 C 23.316406 -68.628906 21.09375 -65.925781 19.1875 -62.5 C 17.28125 -59.070312 15.78125 -55.164062 14.6875 -50.78125 C 13.59375 -46.394531 13.046875 -41.800781 13.046875 -37 C 13.046875 -32.195312 13.59375 -27.601562 14.6875 -23.21875 C 15.78125 -18.832031 17.28125 -14.925781 19.1875 -11.5 C 21.09375 -8.070312 23.316406 -5.367188 25.859375 -3.390625 C 28.410156 -1.410156 31.171875 -0.421875 34.140625 -0.421875 C 36.890625 -0.421875 39.429688 -1.039062 41.765625 -2.28125 C 44.097656 -3.519531 46.078125 -5.09375 47.703125 -7 C 49.328125 -8.90625 50.457031 -10.8125 51.09375 -12.71875 L 57.03125 -7.84375 C 55.476562 -5.582031 53.410156 -3.742188 50.828125 -2.328125 C 48.253906 -0.921875 45.5 0.0976562 42.5625 0.734375 C 39.632812 1.378906 36.828125 1.703125 34.140625 1.703125 C 28.628906 1.703125 23.785156 0.09375 19.609375 -3.125 C 15.441406 -6.34375 12.191406 -10.863281 9.859375 -16.6875 C 7.523438 -22.519531 6.359375 -29.289062 6.359375 -37 Z M 6.359375 -37 "/></g></g></g><g fill="#000000" fill-opacity="1"><g transform="translate(494.031925, 80.250049)"><g><path d="M 2.125 -73.359375 L 2.125 -74.21875 L 30.953125 -74.21875 L 30.953125 -73.359375 C 27.347656 -73.359375 24.769531 -72.546875 23.21875 -70.921875 C 21.664062 -69.296875 20.691406 -66.785156 20.296875 -63.390625 C 19.910156 -60.003906 19.71875 -55.625 19.71875 -50.25 L 19.71875 -2.125 L 32.4375 -2.125 C 37.382812 -2.125 41.429688 -2.671875 44.578125 -3.765625 C 47.722656 -4.859375 50.234375 -6.304688 52.109375 -8.109375 C 53.984375 -9.910156 55.519531 -11.890625 56.71875 -14.046875 C 57.914062 -16.203125 59.082031 -18.34375 60.21875 -20.46875 L 61.0625 -20.46875 L 55.125 0 L 2.125 0 L 2.125 -0.84375 C 5.726562 -0.84375 8.304688 -1.65625 9.859375 -3.28125 C 11.410156 -4.90625 12.378906 -7.429688 12.765625 -10.859375 C 13.160156 -14.296875 13.359375 -18.660156 13.359375 -23.953125 L 13.359375 -50.25 C 13.359375 -55.625 13.160156 -60.003906 12.765625 -63.390625 C 12.378906 -66.785156 11.410156 -69.296875 9.859375 -70.921875 C 8.304688 -72.546875 5.726562 -73.359375 2.125 -73.359375 Z M 2.125 -73.359375 "/></g></g></g><g fill="#000000" fill-opacity="1"><g transform="translate(555.091323, 80.250049)"><g><path d="M 0 -0.84375 C 3.113281 -0.84375 5.550781 -1.53125 7.3125 -2.90625 C 9.082031 -4.289062 10.601562 -6.5 11.875 -9.53125 C 13.144531 -12.570312 14.554688 -16.5 16.109375 -21.3125 C 17.171875 -24.5625 18.335938 -28.179688 19.609375 -32.171875 C 20.878906 -36.171875 22.203125 -40.269531 23.578125 -44.46875 C 24.960938 -48.675781 26.253906 -52.65625 27.453125 -56.40625 C 28.304688 -59.019531 29.066406 -61.382812 29.734375 -63.5 C 30.410156 -65.625 30.75 -67.601562 30.75 -69.4375 C 30.75 -70.851562 30.09375 -71.804688 28.78125 -72.296875 C 27.476562 -72.796875 25.195312 -73.046875 21.9375 -73.046875 L 21.9375 -74.21875 L 37.109375 -74.21875 C 37.671875 -72.445312 38.425781 -70.023438 39.375 -66.953125 C 40.332031 -63.878906 41.429688 -60.394531 42.671875 -56.5 C 43.910156 -52.613281 45.203125 -48.585938 46.546875 -44.421875 C 47.890625 -40.253906 49.210938 -36.171875 50.515625 -32.171875 C 51.828125 -28.179688 53.007812 -24.5625 54.0625 -21.3125 C 55.6875 -16.5 57.117188 -12.570312 58.359375 -9.53125 C 59.597656 -6.5 61.097656 -4.289062 62.859375 -2.90625 C 64.628906 -1.53125 67.070312 -0.84375 70.1875 -0.84375 L 70.1875 0 L 40.5 0 L 40.5 -0.84375 C 43.601562 -0.84375 45.828125 -1.492188 47.171875 -2.796875 C 48.515625 -4.109375 49.222656 -5.929688 49.296875 -8.265625 C 49.367188 -10.597656 49.015625 -13.335938 48.234375 -16.484375 C 47.460938 -19.628906 46.507812 -23.039062 45.375 -26.71875 L 20.890625 -26.71875 C 20.035156 -23.75 19.289062 -20.757812 18.65625 -17.75 C 18.019531 -14.75 17.828125 -11.957031 18.078125 -9.375 C 18.328125 -6.800781 19.316406 -4.734375 21.046875 -3.171875 C 22.773438 -1.617188 25.582031 -0.84375 29.46875 -0.84375 L 29.46875 0 L 0 0 Z M 21.421875 -28.84375 L 44.625 -28.84375 C 43.289062 -33.082031 41.914062 -37.425781 40.5 -41.875 C 39.082031 -46.332031 37.769531 -50.453125 36.5625 -54.234375 C 35.363281 -58.015625 34.394531 -61.050781 33.65625 -63.34375 C 32.914062 -65.644531 32.546875 -66.796875 32.546875 -66.796875 C 32.546875 -66.796875 32.191406 -65.644531 31.484375 -63.34375 C 30.773438 -61.050781 29.851562 -58.015625 28.71875 -54.234375 C 27.59375 -50.453125 26.394531 -46.332031 25.125 -41.875 C 23.851562 -37.425781 22.617188 -33.082031 21.421875 -28.84375 Z M 21.421875 -28.84375 "/></g></g></g><g fill="#000000" fill-opacity="1"><g transform="translate(625.267232, 80.250049)"><g><path d="M 6.359375 -6.25 L 6.359375 -21.09375 L 7.203125 -21.09375 C 8.335938 -17.0625 10.085938 -13.488281 12.453125 -10.375 C 14.828125 -7.269531 17.617188 -4.851562 20.828125 -3.125 C 24.046875 -1.394531 27.492188 -0.53125 31.171875 -0.53125 C 34.628906 -0.53125 37.679688 -1.253906 40.328125 -2.703125 C 42.984375 -4.148438 45.085938 -6.144531 46.640625 -8.6875 C 48.203125 -11.238281 48.984375 -14.066406 48.984375 -17.171875 C 48.984375 -20.285156 48.222656 -22.898438 46.703125 -25.015625 C 45.179688 -27.140625 43.144531 -28.941406 40.59375 -30.421875 C 38.050781 -31.910156 35.28125 -33.253906 32.28125 -34.453125 C 29.28125 -35.648438 26.273438 -36.867188 23.265625 -38.109375 C 20.265625 -39.347656 17.488281 -40.796875 14.9375 -42.453125 C 12.394531 -44.117188 10.363281 -46.171875 8.84375 -48.609375 C 7.332031 -51.046875 6.578125 -54.03125 6.578125 -57.5625 C 6.578125 -60.8125 7.441406 -63.816406 9.171875 -66.578125 C 10.898438 -69.335938 13.425781 -71.5625 16.75 -73.25 C 20.070312 -74.945312 24.101562 -75.796875 28.84375 -75.796875 C 31.738281 -75.796875 34.6875 -75.441406 37.6875 -74.734375 C 40.6875 -74.035156 43.332031 -73.171875 45.625 -72.140625 C 47.925781 -71.117188 49.503906 -70.113281 50.359375 -69.125 L 50.359375 -52.90625 L 49.515625 -52.90625 C 48.453125 -58.90625 46.207031 -63.867188 42.78125 -67.796875 C 39.351562 -71.722656 34.707031 -73.6875 28.84375 -73.6875 C 26.082031 -73.6875 23.460938 -73.082031 20.984375 -71.875 C 18.515625 -70.675781 16.5 -69 14.9375 -66.84375 C 13.382812 -64.6875 12.609375 -62.195312 12.609375 -59.375 C 12.609375 -56.257812 13.367188 -53.675781 14.890625 -51.625 C 16.410156 -49.582031 18.40625 -47.851562 20.875 -46.4375 C 23.351562 -45.019531 26.09375 -43.726562 29.09375 -42.5625 C 32.101562 -41.394531 35.09375 -40.191406 38.0625 -38.953125 C 41.03125 -37.722656 43.75 -36.238281 46.21875 -34.5 C 48.695312 -32.769531 50.691406 -30.613281 52.203125 -28.03125 C 53.722656 -25.457031 54.484375 -22.265625 54.484375 -18.453125 C 54.484375 -14.347656 53.367188 -10.789062 51.140625 -7.78125 C 48.921875 -4.78125 45.957031 -2.46875 42.25 -0.84375 C 38.539062 0.78125 34.390625 1.59375 29.796875 1.59375 C 24.984375 1.59375 20.773438 0.941406 17.171875 -0.359375 C 13.566406 -1.671875 9.960938 -3.632812 6.359375 -6.25 Z M 6.359375 -6.25 "/></g></g></g><g fill="#000000" fill-opacity="1"><g transform="translate(683.994497, 80.250049)"><g><path d="M 6.359375 -6.25 L 6.359375 -21.09375 L 7.203125 -21.09375 C 8.335938 -17.0625 10.085938 -13.488281 12.453125 -10.375 C 14.828125 -7.269531 17.617188 -4.851562 20.828125 -3.125 C 24.046875 -1.394531 27.492188 -0.53125 31.171875 -0.53125 C 34.628906 -0.53125 37.679688 -1.253906 40.328125 -2.703125 C 42.984375 -4.148438 45.085938 -6.144531 46.640625 -8.6875 C 48.203125 -11.238281 48.984375 -14.066406 48.984375 -17.171875 C 48.984375 -20.285156 48.222656 -22.898438 46.703125 -25.015625 C 45.179688 -27.140625 43.144531 -28.941406 40.59375 -30.421875 C 38.050781 -31.910156 35.28125 -33.253906 32.28125 -34.453125 C 29.28125 -35.648438 26.273438 -36.867188 23.265625 -38.109375 C 20.265625 -39.347656 17.488281 -40.796875 14.9375 -42.453125 C 12.394531 -44.117188 10.363281 -46.171875 8.84375 -48.609375 C 7.332031 -51.046875 6.578125 -54.03125 6.578125 -57.5625 C 6.578125 -60.8125 7.441406 -63.816406 9.171875 -66.578125 C 10.898438 -69.335938 13.425781 -71.5625 16.75 -73.25 C 20.070312 -74.945312 24.101562 -75.796875 28.84375 -75.796875 C 31.738281 -75.796875 34.6875 -75.441406 37.6875 -74.734375 C 40.6875 -74.035156 43.332031 -73.171875 45.625 -72.140625 C 47.925781 -71.117188 49.503906 -70.113281 50.359375 -69.125 L 50.359375 -52.90625 L 49.515625 -52.90625 C 48.453125 -58.90625 46.207031 -63.867188 42.78125 -67.796875 C 39.351562 -71.722656 34.707031 -73.6875 28.84375 -73.6875 C 26.082031 -73.6875 23.460938 -73.082031 20.984375 -71.875 C 18.515625 -70.675781 16.5 -69 14.9375 -66.84375 C 13.382812 -64.6875 12.609375 -62.195312 12.609375 -59.375 C 12.609375 -56.257812 13.367188 -53.675781 14.890625 -51.625 C 16.410156 -49.582031 18.40625 -47.851562 20.875 -46.4375 C 23.351562 -45.019531 26.09375 -43.726562 29.09375 -42.5625 C 32.101562 -41.394531 35.09375 -40.191406 38.0625 -38.953125 C 41.03125 -37.722656 43.75 -36.238281 46.21875 -34.5 C 48.695312 -32.769531 50.691406 -30.613281 52.203125 -28.03125 C 53.722656 -25.457031 54.484375 -22.265625 54.484375 -18.453125 C 54.484375 -14.347656 53.367188 -10.789062 51.140625 -7.78125 C 48.921875 -4.78125 45.957031 -2.46875 42.25 -0.84375 C 38.539062 0.78125 34.390625 1.59375 29.796875 1.59375 C 24.984375 1.59375 20.773438 0.941406 17.171875 -0.359375 C 13.566406 -1.671875 9.960938 -3.632812 6.359375 -6.25 Z M 6.359375 -6.25 "/></g></g></g></g></g></g></g></g></svg>